<mxfile host="app.diagrams.net" modified="2023-05-20T23:24:29.439Z" agent="Mozilla/5.0 (Windows NT 10.0; Win64; x64; rv:109.0) Gecko/20100101 Firefox/113.0" version="21.3.2" etag="fBm8Rh0UekPxXr-EEtsW" type="github">
  <diagram name="Page-1" id="IqGk7z4sHVb__Z8hHeqH">
    <mxGraphModel>
      <root>
        <mxCell id="0" />
        <mxCell id="1" parent="0" />
      </root>
    </mxGraphModel>
  </diagram>
</mxfile>
